<?xml version="1.0" encoding="UTF-8"?>
<svg id="Layer_1" data-name="Layer 1" xmlns="http://www.w3.org/2000/svg" viewBox="0 0 1686.77 398.55">
  <defs>
    <style>
      .cls-1 {
        fill: #fff;
      }
    </style>
  </defs>
  <path class="cls-1" d="M1240.22,32.83c-23.73-15.22-58.9-22.83-105.52-22.83h-95.85v52.26c12.84,1.6,48.11,6.9,63.29,18.31,0,0-41.17,15.19-63.29,88.28v124.58h90.91v-96.67h21.39c25.23,0,47.16-3.77,65.82-11.32,18.65-7.54,33.11-18.51,43.4-32.91,10.28-14.4,15.42-31.88,15.42-52.45,0-29.62-11.86-52.04-35.58-67.26ZM1181.18,130.53c-7.95,6.04-19.19,9.05-33.73,9.05h-17.69v-69.93h18.51c14.54,0,25.64,2.81,33.33,8.43,7.68,5.63,11.52,14.06,11.52,25.3,0,12.07-3.98,21.12-11.93,27.15Z"/>
  <path class="cls-1" d="M1002.09,104.88c-24.75,12.05-47.58,30.69-56.72,56.87-6.21,17.79-4.84,21.27-5.88,39.75-.12,2.18-14.81-7.82-14.91-10.53-.17-4.79,10.5-21.99,11.87-27.83,1.16-4.96-.98-15.95.62-22.09,25.65-98.12,140.55-61.28,141.89-59.47-44.35,31.74-37.11,77.97-78.11,92.9-29.47,10.73-49.55.29-49.55.29,4.77-20.4,16.52-39.4,32.07-53.8,6.06-5.62,21.71-17.47,18.72-16.09Z"/>
  <path class="cls-1" d="M1502.78,200.55h-142.97c.76,11.82,4.04,20.62,9.82,26.39,5.78,5.78,13.16,8.68,22.16,8.68,12.59,0,21.58-5.65,26.98-16.96h80.55c-3.35,14.91-9.83,28.2-19.46,39.88-9.64,11.7-21.78,20.88-36.43,27.55-14.64,6.69-30.82,10.02-48.55,10.02-21.33,0-40.28-4.49-56.85-13.49-16.57-8.99-29.54-21.83-38.92-38.54-9.38-16.7-14.06-36.35-14.06-58.97s4.63-42.19,13.87-58.77c9.25-16.57,22.17-29.35,38.73-38.34,16.57-8.99,35.64-13.49,57.24-13.49s40.2,4.37,56.65,13.1c16.43,8.74,29.29,21.26,38.54,37.58,9.25,16.31,13.88,35.52,13.88,57.61,0,5.91-.39,11.83-1.16,17.73ZM1426.86,163.94c0-9.25-3.08-16.5-9.25-21.77-6.16-5.27-13.87-7.9-23.12-7.9s-16.84,2.51-22.74,7.52c-5.91,5.01-9.77,12.4-11.57,22.16h66.67Z"/>
  <path class="cls-1" d="M199.67,276.63c37.3-18.21,68.04-20.89,94.4-16.71L221.9,10.41H88.62L10.46,293.43h96.67l11.93-54.3h73.22l7.39,37.5ZM127.7,188.53l27.97-123.82,26.74,123.82h-54.71Z"/>
  <path class="cls-1" d="M467.89,87.34v88.03c0,14.26-3.22,25.78-9.67,34.56-6.45,8.78-15.01,13.16-25.71,13.16-17.28,0-25.91-12.2-25.91-36.61v-99.14h-86.8v94.61c0,33.73,6.99,59.85,20.98,78.37,13.98,18.51,33.73,27.77,59.24,27.77,16.46,0,30.71-3.77,42.78-11.31,12.06-7.54,21.39-19.67,27.97-36.41v23.45c0,15.91-4.05,27.7-12.14,35.38-8.09,7.68-21.37,10.19-39.7,11.52-10.74.78-36.99-4.59-58.8-14.82-46.15-21.66-104.86-51.62-203.04,19.07l-2.15,75.27c.87.05,90.68-84.41,195.87-29.53,79.2,41.32,149.7,2.52,171.37-18.32,21.66-20.84,32.5-53.2,32.5-97.08V87.34h-86.8Z"/>
  <path class="cls-1" d="M704.83,296.72c-34.83,0-62.05-8.84-81.65-26.53-19.61-17.69-29.41-42.17-29.41-73.43v-109.42h84.74v113.12c0,10.97,2.4,19.07,7.2,24.27,4.79,5.21,11.31,7.82,19.54,7.82s14.19-2.6,18.72-7.82c4.53-5.2,6.78-13.3,6.78-24.27v-113.12h83.09v109.42c0,31.54-9.53,56.09-28.59,73.63-19.07,17.55-45.87,26.33-80.42,26.33Z"/>
  <path class="cls-1" d="M1623.66,296.72c-19.47,0-35.32-3.29-47.51-9.87-12.21-6.58-21.06-15.49-26.53-26.74-5.5-11.24-8.23-23.86-8.23-37.84v-83.92h-26.32v-51.01h32.5l38.26-65h42.37v65h47.72v51.01h-47.72v71.99c0,6.31,2.06,11.18,6.17,14.6,4.11,3.43,9.46,5.14,16.04,5.14s13.16-1.64,19.74-4.94l6.17,57.18c-6.58,4.66-14.95,8.23-25.09,10.7-10.15,2.47-19.33,3.7-27.56,3.7Z"/>
  <rect class="cls-1" x="852.92" y="87.34" width="86.57" height="206.09"/>
</svg>